<?xml version="1.0" encoding="utf-8"?>
<!-- Generator: Adobe Illustrator 25.2.1, SVG Export Plug-In . SVG Version: 6.00 Build 0)  -->
<svg version="1.1" id="Layer_1" xmlns="http://www.w3.org/2000/svg" xmlns:xlink="http://www.w3.org/1999/xlink" x="0px" y="0px"
	 viewBox="0 0 1900 600.1" style="enable-background:new 0 0 1900 600.1;" xml:space="preserve">
<style type="text/css">
	.st0{fill:#041E42;}
	.st1{fill:#999966;}
	.st2{fill:#399FD3;}
</style>
<g>
	<g>
		<path class="st0" d="M411.6,135.8c0-15.2,2.7-30.4,8-45.6c5.4-15.1,13.2-28.6,23.4-40.6c10.2-11.9,22.9-21.6,37.9-29.1
			c15-7.5,32-11.3,51.1-11.3c22.6,0,41.9,5.1,57.9,15.4c16,10.2,27.9,23.6,35.7,40l-20,12.1c-4.1-8.3-8.9-15.4-14.6-21.1
			c-5.7-5.7-11.9-10.4-18.6-13.9c-6.7-3.6-13.6-6.1-20.7-7.7c-7.1-1.5-14.2-2.3-21.1-2.3c-15.2,0-28.7,3.1-40.4,9.3
			c-11.7,6.2-21.5,14.3-29.5,24.3c-8,10-14,21.3-18,33.8c-4.1,12.5-6.1,25.2-6.1,38c0,14.1,2.4,27.5,7.3,40.4
			c4.9,12.9,11.6,24.2,20,34.1c8.5,9.9,18.5,17.7,30,23.6c11.6,5.8,24.1,8.8,37.7,8.8c7.1,0,14.5-0.9,22-2.7
			c7.5-1.8,14.8-4.6,21.8-8.6c7-3.9,13.5-8.8,19.5-14.6c6-5.8,11-12.9,15-21.3l20.7,10.7c-4.1,9.5-9.8,17.9-17.2,25.2
			c-7.4,7.3-15.6,13.4-24.7,18.4c-9.1,5-18.6,8.8-28.8,11.4c-10.1,2.6-20.1,3.9-29.8,3.9c-17.4,0-33.3-3.8-47.9-11.4
			c-14.5-7.6-27-17.6-37.5-29.8c-10.5-12.3-18.6-26.2-24.5-41.8C414.5,167.9,411.6,152,411.6,135.8z"/>
		<path class="st0" d="M774.2,266.2c-17.6,0-33.8-3.6-48.4-10.9c-14.6-7.3-27.2-16.9-37.7-28.9c-10.5-12-18.6-25.8-24.3-41.3
			c-5.7-15.5-8.6-31.3-8.6-47.5c0-16.9,3-33.1,9.1-48.6c6.1-15.5,14.5-29.2,25.2-41.1c10.7-11.9,23.3-21.4,37.9-28.4
			c14.5-7,30.2-10.5,47.2-10.5c17.6,0,33.8,3.8,48.4,11.3c14.6,7.5,27.2,17.3,37.5,29.5c10.4,12.1,18.4,25.9,24.1,41.3
			c5.7,15.4,8.6,31,8.6,47c0,16.9-3,33.1-9.1,48.6c-6.1,15.5-14.4,29.1-25,40.9c-10.6,11.8-23.2,21.2-37.7,28.2
			C806.8,262.7,791.1,266.2,774.2,266.2z M680.2,137.6c0,13.8,2.3,27.1,6.8,39.8c4.5,12.7,11,24.1,19.3,33.9
			c8.3,9.9,18.2,17.7,29.7,23.6c11.4,5.8,24.2,8.8,38.2,8.8c14.3,0,27.3-3.1,38.9-9.3c11.7-6.2,21.6-14.3,29.7-24.3
			c8.1-10,14.3-21.3,18.8-33.9c4.4-12.6,6.6-25.5,6.6-38.6c0-13.8-2.3-27.1-7-39.8c-4.6-12.7-11.1-24-19.5-33.8
			c-8.3-9.8-18.2-17.6-29.7-23.4c-11.4-5.8-24.1-8.8-37.9-8.8c-14.3,0-27.3,3-38.9,9.1C723.6,47,713.7,55,705.6,65
			c-8.1,10-14.4,21.3-18.8,33.9C682.4,111.6,680.2,124.5,680.2,137.6z"/>
		<path class="st0" d="M941.4,264.4V10.7h85.7c20.2,0,38,3.3,53.2,10c15.2,6.7,27.9,15.7,38.1,27.2c10.1,11.4,17.7,24.8,22.7,40.2
			c5,15.4,7.5,31.7,7.5,49.1c0,19.3-2.9,36.7-8.6,52.3c-5.7,15.6-13.8,28.9-24.3,40c-10.5,11.1-23.2,19.7-38.2,25.7
			c-15,6.1-31.8,9.1-50.4,9.1H941.4z M1123.6,137.2c0-15.2-2.1-29.2-6.4-42c-4.3-12.7-10.5-23.8-18.8-33
			c-8.2-9.3-18.3-16.5-30.2-21.6c-11.9-5.1-25.6-7.7-41.1-7.7h-61.1v209.4h61.1c15.7,0,29.6-2.7,41.6-8c12-5.4,22.1-12.7,30.2-22.2
			c8.1-9.4,14.2-20.5,18.4-33.2C1121.5,166.1,1123.6,152.2,1123.6,137.2z"/>
		<path class="st0" d="M1368.4,242.2v22.2h-170.4V10.7h167.2v22.2h-142.6v91.5h124.3v21.1h-124.3v96.8H1368.4z"/>
		<path class="st0" d="M1513.1,264.4V89.3h-26.4V78.6h26.4v-6.8c0-22.6,4.5-40.3,13.4-52.9c8.9-12.6,21.4-18.9,37.3-18.9
			c6.9,0,13.6,1.1,20,3.4c6.4,2.3,11.6,5.2,15.4,8.8l-6.1,7.9c-3.1-2.6-7.1-4.8-12.1-6.4c-5-1.7-10.2-2.5-15.7-2.5
			c-12.9,0-22.8,5.2-29.7,15.5c-6.9,10.4-10.4,25.4-10.4,45.2v6.8h54.3v10.7h-54.3v175.1H1513.1z"/>
		<path class="st0" d="M1682.4,268c-12.6,0-24.4-2.6-35.2-7.7c-10.8-5.1-20.3-12-28.4-20.7c-8.1-8.7-14.4-18.9-18.9-30.5
			c-4.5-11.7-6.8-23.9-6.8-36.8c0-13.1,2.3-25.5,7-37.2c4.6-11.7,11-21.9,19.1-30.7c8.1-8.8,17.6-15.8,28.4-20.9
			c10.8-5.1,22.4-7.7,34.8-7.7c12.4,0,24.1,2.6,35,7.7c11,5.1,20.5,12.1,28.6,20.9c8.1,8.8,14.5,19.1,19.1,30.7
			c4.6,11.7,7,24.1,7,37.2c0,12.9-2.3,25.1-7,36.8c-4.6,11.7-11,21.9-18.9,30.5c-8,8.7-17.5,15.6-28.4,20.7
			C1706.8,265.4,1695,268,1682.4,268z M1605.2,172.6c0,11.4,2,22.3,6.1,32.5c4,10.2,9.5,19.2,16.4,26.8c6.9,7.6,15.1,13.6,24.5,18
			c9.4,4.4,19.3,6.6,29.8,6.6c10.7,0,20.8-2.3,30.2-6.8c9.4-4.5,17.6-10.6,24.7-18.2c7-7.6,12.6-16.6,16.6-27
			c4-10.4,6.1-21.3,6.1-32.7c0-11.4-2-22.3-6.1-32.7c-4.1-10.4-9.6-19.3-16.6-27c-7-7.6-15.2-13.7-24.7-18.2
			c-9.4-4.5-19.4-6.8-29.8-6.8c-10.5,0-20.4,2.3-29.7,6.8c-9.3,4.5-17.5,10.7-24.5,18.4c-7,7.7-12.6,16.8-16.8,27.2
			C1607.3,149.9,1605.2,160.9,1605.2,172.6z"/>
		<path class="st0" d="M1900,90c-17.2,0.7-32,6.1-44.7,16.3c-12.6,10.1-21.4,23.9-26.4,41.3v116.8h-12.1V78.6h11.8v47.2
			c6.4-13.1,15-23.8,25.7-32.2c10.7-8.3,22.2-13.2,34.3-14.6c2.4-0.2,4.6-0.4,6.6-0.4c2,0,3.6,0,4.8,0V90z"/>
	</g>
	<g>
		<path class="st0" d="M504.3,291.1H557L673.7,598h-61.4l-28.5-76.5H476.6L448.5,598h-61.4L504.3,291.1z M573,479.6L530.6,359
			l-44.1,120.6H573z"/>
		<path class="st0" d="M707.4,598V291.6H767v145.6l128.8-146.1h65.7L844,427.3L968.8,598h-67l-95.5-132.7L767,506.4V598H707.4z"/>
		<path class="st0" d="M996.5,598V291.1h135.7c14.1,0,27.2,3,39.1,8.9c12,5.9,22.3,13.7,30.9,23.3c8.6,9.7,15.4,20.6,20.3,32.8
			c4.9,12.2,7.3,24.6,7.3,36.9c0,19.9-5,38-14.9,54.2c-9.9,16.3-23.4,28-40.4,35.2l70,115.4h-67l-62.7-102.9h-58.8V598H996.5z
			 M1056.1,442.8h74.8c5.5,0,10.6-1.3,15.3-3.9c4.8-2.6,8.9-6.1,12.3-10.6c3.5-4.5,6.2-9.7,8.2-15.8c2-6,3-12.5,3-19.4
			c0-7.2-1.2-13.8-3.5-19.9c-2.3-6-5.4-11.3-9.3-15.8c-3.9-4.5-8.4-7.9-13.4-10.4c-5-2.4-10.2-3.7-15.3-3.7h-72.2V442.8z"/>
		<path class="st0" d="M1414.8,600.1c-22.5,0-42.9-4.4-61.1-13.2c-18.3-8.8-34-20.5-47.1-35c-13.1-14.5-23.3-31.2-30.5-49.9
			c-7.2-18.7-10.8-37.9-10.8-57.5c0-20.5,3.8-40,11.5-58.8c7.6-18.7,18.1-35.3,31.5-49.7c13.4-14.4,29.3-25.9,47.8-34.4
			c18.4-8.5,38.5-12.7,60.1-12.7c22.2,0,42.4,4.5,60.7,13.6c18.3,9.1,33.9,21,46.9,35.7c13,14.7,23,31.4,30.2,50.1
			c7.2,18.7,10.8,37.7,10.8,57c0,20.5-3.7,40-11.2,58.6c-7.5,18.6-17.9,35-31.1,49.3c-13.3,14.3-29.1,25.6-47.5,34.1
			C1456.4,595.9,1436.4,600.1,1414.8,600.1z M1325.8,444.6c0,13.3,2,26.1,6,38.5c4,12.4,9.9,23.3,17.5,32.8
			c7.6,9.5,17,17.1,28.1,22.9c11.1,5.8,23.7,8.6,37.8,8.6c14.4,0,27.2-3,38.2-8.9c11.1-5.9,20.5-13.8,28.1-23.5
			c7.6-9.8,13.4-20.8,17.3-33.1c3.9-12.2,5.8-24.7,5.8-37.4c0-13.2-2.1-26.1-6.3-38.5c-4.2-12.4-10.1-23.3-17.7-32.8
			c-7.6-9.5-17-17.1-28.1-22.7c-11.1-5.6-23.5-8.4-37.4-8.4c-14.4,0-27.2,3-38.5,8.9c-11.2,5.9-20.6,13.7-28.1,23.3
			c-7.5,9.7-13.2,20.6-17.1,32.8C1327.7,419.4,1325.8,431.9,1325.8,444.6z"/>
		<path class="st0" d="M1670.2,401.3V598h-59.6V291.1h46.2l159.9,201.4V291.6h59.6V598H1828L1670.2,401.3z"/>
	</g>
	<g>
		<g>
			<path class="st1" d="M308.1,101.2H374c-2.4,8.5-3.9,16.9-4.6,25.4h-61.3c-7.3,0-12.7-5.9-13.1-12.7
				C294.7,107,301.2,101.2,308.1,101.2z"/>
		</g>
		<g>
			<path class="st1" d="M444.4,19.4c-2.1,0.9-4.1,1.8-6.1,2.8c-11.5,5.8-21.7,12.9-30.4,21.2H226c-7.3,0-12.7-5.5-13.1-12
				c-0.3-6.5,6.3-12,13.1-12H444.4z"/>
		</g>
		<g>
			<path class="st1" d="M377.7,185.1c3.1,8.2,6.8,16,11.2,23.3H240.5c-7.3,0-12.7-5.5-13.1-12c-0.3-6.5,6.3-12,13.1-12h136.9
				C377.5,184.5,377.6,184.8,377.7,185.1z"/>
		</g>
		<g>
			<path class="st1" d="M393.1,60.6c-5.3,7.5-9.8,15.5-13.4,24.1H76.9c-7.3,0-12.8-5.5-13.1-12.1c-0.3-6.5,6.3-12,13.1-12H393.1z"/>
		</g>
		<g>
			<path class="st1" d="M372.3,167.1H76.9c-7.3,0-12.7-5.5-13.1-12c-0.3-6.5,6.3-12,13.1-12H369
				C369.4,151.2,370.4,159.2,372.3,167.1z"/>
		</g>
		<g>
			<path class="st1" d="M426.3,248.7l-264.1,0.9c-7.3,0-12.8-5.5-13.1-12c-0.3-6.5,6.2-12.1,13.1-12.1H401c0.3,0.5,0.7,0.9,1.1,1.4
				C409.2,235.2,417.3,242.5,426.3,248.7z"/>
		</g>
	</g>
	<g>
		<g>
			<path class="st1" d="M413.5,432.3l-9.7,25.4H290.6c-7.3,0-12.8-5.9-13.1-12.7c-0.3-6.9,6.3-12.7,13.1-12.7H413.5z"/>
		</g>
		<g>
			<path class="st1" d="M459.9,310.7l-8.6,22.7H226c-7.3,0-12.7-5.5-13.1-12c-0.3-6.5,6.3-12,13.1-12L459.9,310.7z"/>
		</g>
		<g>
			<path class="st1" d="M164.1,350.5h280.6l-9.2,24.1H164.1c-7.3,0-12.7-5.5-13.1-12.1C150.7,356.1,157.3,350.5,164.1,350.5z"/>
		</g>
		<g>
			<path class="st1" d="M397.5,474.2l-9.2,24.1H13.1c-7.3,0-12.7-5.5-13.1-12c-0.3-6.5,6.3-12,13.1-12H397.5z"/>
		</g>
		<g>
			<path class="st1" d="M429,391.8l-9.2,24.1H113.5c-7.3,0-12.8-5.5-13.1-12c-0.3-6.5,6.3-12,13.1-12H429z"/>
		</g>
		<g>
			<path class="st1" d="M381.8,515.5l-9.2,24.1H165.2c-7.3,0-12.8-5.5-13.1-12c-0.3-6.5,6.2-12.1,13.1-12.1H381.8z"/>
		</g>
		<g>
			<path class="st1" d="M366,556.7l-9.2,24.1H69.1c-7.3,0-12.8-5.5-13.1-12c-0.3-6.5,6.2-12,13.1-12H366z"/>
		</g>
	</g>
	<g>
		<polygon class="st2" points="667.3,296.1 666.9,296.1 667.1,295.5 		"/>
	</g>
</g>
</svg>
